<svg width="800" height="220" viewBox="0 0 800 220" fill="none" xmlns="http://www.w3.org/2000/svg">
  <rect width="800" height="220" fill="transparent"/>
  <g transform="translate(8,18)">
    <ellipse cx="32" cy="116" rx="22" ry="26" fill="#FEF3C7"/>
    <circle cx="24" cy="108" r="4" fill="#1F2937"/>
    <circle cx="40" cy="108" r="4" fill="#1F2937"/>
    <polygon points="32,116 28,122 36,122" fill="#F59E0B"/>
    <rect x="16" y="128" width="32" height="30" rx="8" fill="#E11D48"/>
    <rect x="8" y="76" width="8" height="70" transform="rotate(-18 8 76)" fill="#1F2937"/>
    <path d="M20 72 L70 88 L62 108 L12 92 Z" fill="#DC2626"/>
    <path d="M21 79 L66 93" stroke="#FCA5A5" stroke-width="3"/>
    <path d="M18 87 L63 101" stroke="#FCA5A5" stroke-width="3"/>
  </g>
  <g fill="#B40019">
    <path d="M125 140C106 140 89 133 78 122L93 105C103 114 114 120 128 120C140 120 147 116 147 109C147 101 137 99 121 95C96 89 83 79 83 57C83 34 102 18 132 18C152 18 169 24 182 35L169 52C158 44 146 40 132 40C121 40 114 44 114 51C114 59 122 61 141 66C166 72 178 83 178 103C178 127 158 140 125 140Z"/>
    <path d="M195 22H226V137H195V22Z"/>
    <path d="M246 22H274L319 81V22H349V137H323L276 75V137H246V22Z"/>
    <path d="M392 49H357V22H459V49H424V137H392V49Z"/>
    <path d="M470 22H563V48H501V67H557V91H501V111H564V137H470V22Z"/>
    <path d="M624 140C605 140 588 133 577 122L592 105C602 114 613 120 627 120C639 120 646 116 646 109C646 101 636 99 620 95C595 89 582 79 582 57C582 34 601 18 631 18C651 18 668 24 681 35L668 52C657 44 645 40 631 40C620 40 613 44 613 51C613 59 621 61 640 66C665 72 677 83 677 103C677 127 657 140 624 140Z"/>
  </g>
  <g transform="translate(684,8)">
    <circle cx="88" cy="94" r="84" fill="#E1061A"/>
    <path d="M86 20 L96 22 L82 171 L73 171 Z" fill="#D1D5DB"/>
    <path d="M90 56 C112 62,127 80,132 101 C122 106,112 113,102 123 C95 115,85 103,82 90 C80 78,83 67,90 56Z" fill="#8F0014"/>
    <path d="M78 111 C69 115,58 123,53 132 C63 136,74 141,85 149 C92 139,100 126,101 114 C95 111,88 110,78 111Z" fill="#8F0014"/>
  </g>
</svg>

